# xmcd
#
# Track frame offsets:
#	150
#	19241
#	35821
#	49323
#	67235
#	83084
#	99343
#	118192
#	139089
#	157268
#	177810
#	200857
#	219626
#	235031
#
# Disc length: 3365 seconds
#
# Revision: 0
# Processed by: cddbd v1.5.2PL0 Copyright (c) Steve Scherf et al.
# Submitted via: dBpowerAMP V4.0
#
DISCID=d40d230e
DTITLE=New Times Va - (csbRip) - Best Of Phat Phoenix
DYEAR=2004
DGENRE=Rap
TTITLE0=1.N8 Ridaz - So Fly
TTITLE1=2.JX3 - Hit The Scene
TTITLE2=3.Phunk Junkees - Move It
TTITLE3=4.Drunken Immortals - Cool Breeze
TTITLE4=5.Magnum P.I.e - Red Light
TTITLE5=6.Mic Devious - Mic Check
TTITLE6=7.Pokafase - Me And The Mic
TTITLE7=8.Antedote - Antedote
TTITLE8=9.N.O.K. - Hip Hop
TTITLE9=10.Emerge Mcvay - Looking For My Pen
TTITLE10=11.Cut Throat Logic - Pain In My Eyes
TTITLE11=12.Aural Aesthetic - Not Now But Right Now
TTITLE12=13.Dj Radar - Antimatter
TTITLE13=14.Morse Code - Journey Thru The Levels
EXTD=
EXTT0=
EXTT1=
EXTT2=
EXTT3=
EXTT4=
EXTT5=
EXTT6=
EXTT7=
EXTT8=
EXTT9=
EXTT10=
EXTT11=
EXTT12=
EXTT13=
PLAYORDER=
